<svg width="12" height="12" viewBox="0 0 12 12" fill="none" xmlns="http://www.w3.org/2000/svg">
<path d="M1.98102 9C1.65435 9 1.39002 8.89883 1.18802 8.6965C0.986021 8.49417 0.884855 8.23 0.884521 7.904V4.096C0.884521 3.76967 0.985688 3.5055 1.18802 3.3035C1.39035 3.1015 1.65469 3.00033 1.98102 3H5.78852C6.11485 3 6.37919 3.10117 6.58152 3.3035C6.78385 3.50583 6.88485 3.77 6.88452 4.096V7.904C6.88452 8.23033 6.78352 8.4945 6.58152 8.6965C6.37952 8.8985 6.11519 8.99967 5.78852 9H1.98102ZM1.38452 7.7135C1.75119 7.4775 2.14285 7.29317 2.55952 7.1605C2.97619 7.02783 3.41785 6.9615 3.88452 6.9615C4.35119 6.9615 4.79285 7.02783 5.20952 7.1605C5.62619 7.29317 6.01785 7.4775 6.38452 7.7135V4.096C6.38452 3.92933 6.32686 3.78833 6.21152 3.673C6.09619 3.55767 5.95519 3.5 5.78852 3.5H1.98102C1.81435 3.5 1.67335 3.55767 1.55802 3.673C1.44235 3.78833 1.38452 3.92933 1.38452 4.096V7.7135ZM3.88452 7.4615C3.49785 7.4615 3.11002 7.52083 2.72102 7.6395C2.33202 7.75817 1.95969 7.93933 1.60402 8.183C1.62335 8.28533 1.68585 8.36367 1.79152 8.418C1.89719 8.47233 2.00452 8.49967 2.11352 8.5H5.65602C5.77136 8.5 5.87869 8.47283 5.97802 8.4185C6.07735 8.36417 6.15585 8.28567 6.21352 8.183C5.86419 7.95833 5.49019 7.782 5.09152 7.654C4.69252 7.52567 4.29019 7.4615 3.88452 7.4615ZM3.88452 6.4715C3.54785 6.4715 3.26019 6.352 3.02152 6.113C2.78285 5.874 2.66352 5.58633 2.66352 5.25C2.66352 4.91367 2.78285 4.626 3.02152 4.387C3.26019 4.148 3.54785 4.02867 3.88452 4.029C4.22119 4.02933 4.50885 4.14867 4.74752 4.387C4.98619 4.62533 5.10552 4.913 5.10552 5.25C5.10552 5.587 4.98619 5.87467 4.74752 6.113C4.50885 6.35133 4.22119 6.47117 3.88452 6.4715ZM3.88452 5.9885C4.08652 5.9885 4.26002 5.91583 4.40502 5.7705C4.55035 5.6255 4.62302 5.452 4.62302 5.25C4.62302 5.048 4.55035 4.8745 4.40502 4.7295C4.25969 4.5845 4.08635 4.51183 3.88502 4.5115C3.68369 4.51117 3.51002 4.58383 3.36402 4.7295C3.21869 4.8745 3.14602 5.048 3.14602 5.25C3.14602 5.452 3.21869 5.6255 3.36402 5.7705C3.50935 5.9155 3.68285 5.98817 3.88452 5.9885ZM8.50002 9V3H9.00002V9H8.50002ZM10.615 9V3H11.115V9H10.615Z" fill="#F2F2F2"/>
</svg>
