<svg width="31" height="30" viewBox="0 0 31 30" fill="none" xmlns="http://www.w3.org/2000/svg">
<path d="M10.8384 15.4966L22.0649 24.3155C22.4824 24.6437 23.0962 24.3478 23.0962 23.8189V6.18076C23.0962 5.65195 22.4824 5.35635 22.0649 5.68447L10.8384 14.5034C10.763 14.5624 10.7021 14.6378 10.6602 14.7238C10.6183 14.8099 10.5965 14.9043 10.5965 15C10.5965 15.0957 10.6183 15.1901 10.6602 15.2762C10.7021 15.3622 10.763 15.4376 10.8384 15.4966ZM10.3228 25.3125H8.44775C8.38559 25.3125 8.32598 25.2878 8.28203 25.2439C8.23807 25.1999 8.21338 25.1403 8.21338 25.0781V4.92188C8.21338 4.85971 8.23807 4.8001 8.28203 4.75615C8.32598 4.71219 8.38559 4.6875 8.44775 4.6875H10.3228C10.3849 4.6875 10.4445 4.71219 10.4885 4.75615C10.5324 4.8001 10.5571 4.85971 10.5571 4.92188V25.0781C10.5571 25.1403 10.5324 25.1999 10.4885 25.2439C10.4445 25.2878 10.3849 25.3125 10.3228 25.3125Z" fill="black"/>
</svg>
