<svg width="30" height="30" viewBox="0 0 30 30" fill="none" xmlns="http://www.w3.org/2000/svg">
<path d="M14.7888 19.9826C14.8139 20.0146 14.8459 20.0405 14.8824 20.0583C14.919 20.0761 14.9591 20.0853 14.9997 20.0853C15.0404 20.0853 15.0805 20.0761 15.1171 20.0583C15.1536 20.0405 15.1856 20.0146 15.2107 19.9826L18.9607 15.2381C19.098 15.064 18.9741 14.8062 18.7497 14.8062H16.2687V3.47586C16.2687 3.32854 16.1482 3.20801 16.0009 3.20801H13.9919C13.8446 3.20801 13.7241 3.32854 13.7241 3.47586V14.8029H11.2497C11.0254 14.8029 10.9015 15.0607 11.0388 15.2348L14.7888 19.9826ZM27.2542 18.8107H25.2453C25.098 18.8107 24.9774 18.9312 24.9774 19.0785V24.2348H5.02206V19.0785C5.02206 18.9312 4.90152 18.8107 4.7542 18.8107H2.74527C2.59795 18.8107 2.47742 18.9312 2.47742 19.0785V25.708C2.47742 26.3006 2.95621 26.7794 3.54885 26.7794H26.4506C27.0433 26.7794 27.5221 26.3006 27.5221 25.708V19.0785C27.5221 18.9312 27.4015 18.8107 27.2542 18.8107Z" fill="black" fill-opacity="0.85"/>
</svg>
