<svg width="32" height="32" viewBox="0 0 32 32" fill="none" xmlns="http://www.w3.org/2000/svg">
<path d="M16 9.5C17.1046 9.5 18 8.60457 18 7.5C18 6.39543 17.1046 5.5 16 5.5C14.8954 5.5 14 6.39543 14 7.5C14 8.60457 14.8954 9.5 16 9.5Z" fill="#F2F2F2"/>
<path d="M16 18C17.1046 18 18 17.1046 18 16C18 14.8954 17.1046 14 16 14C14.8954 14 14 14.8954 14 16C14 17.1046 14.8954 18 16 18Z" fill="#F2F2F2"/>
<path d="M16 26.5C17.1046 26.5 18 25.6046 18 24.5C18 23.3954 17.1046 22.5 16 22.5C14.8954 22.5 14 23.3954 14 24.5C14 25.6046 14.8954 26.5 16 26.5Z" fill="#F2F2F2"/>
</svg>
