<svg width="31" height="30" viewBox="0 0 31 30" fill="none" xmlns="http://www.w3.org/2000/svg">
<path d="M20.4712 15.4966L9.24463 24.3155C8.82715 24.6437 8.21338 24.3478 8.21338 23.8189V6.18076C8.21338 5.65195 8.82715 5.35635 9.24463 5.68447L20.4712 14.5034C20.5465 14.5624 20.6075 14.6378 20.6494 14.7238C20.6912 14.8099 20.713 14.9043 20.713 15C20.713 15.0957 20.6912 15.1901 20.6494 15.2762C20.6075 15.3622 20.5465 15.4376 20.4712 15.4966ZM20.9868 25.3125H22.8618C22.924 25.3125 22.9836 25.2878 23.0275 25.2439C23.0715 25.1999 23.0962 25.1403 23.0962 25.0781V4.92188C23.0962 4.85971 23.0715 4.8001 23.0275 4.75615C22.9836 4.71219 22.924 4.6875 22.8618 4.6875H20.9868C20.9247 4.6875 20.865 4.71219 20.8211 4.75615C20.7771 4.8001 20.7524 4.85971 20.7524 4.92188V25.0781C20.7524 25.1403 20.7771 25.1999 20.8211 25.2439C20.865 25.2878 20.9247 25.3125 20.9868 25.3125Z" fill="black"/>
</svg>
