<svg width="100" height="100" viewBox="0 0 100 100" fill="none" xmlns="http://www.w3.org/2000/svg">
<path d="M64.711 79.0391C65.0013 79.3294 65.2316 79.6741 65.3887 80.0535C65.5459 80.4328 65.6268 80.8394 65.6268 81.25C65.6268 81.6606 65.5459 82.0672 65.3887 82.4466C65.2316 82.8259 65.0013 83.1706 64.711 83.4609C64.4206 83.7513 64.0759 83.9816 63.6966 84.1387C63.3172 84.2959 62.9106 84.3767 62.5 84.3767C62.0894 84.3767 61.6828 84.2959 61.3035 84.1387C60.9241 83.9816 60.5794 83.7513 60.2891 83.4609L29.0391 52.2109C28.7485 51.9207 28.518 51.5761 28.3608 51.1967C28.2035 50.8173 28.1226 50.4107 28.1226 50C28.1226 49.5893 28.2035 49.1827 28.3608 48.8033C28.518 48.4239 28.7485 48.0793 29.0391 47.7891L60.2891 16.5391C60.8755 15.9527 61.6708 15.6233 62.5 15.6233C63.3293 15.6233 64.1246 15.9527 64.711 16.5391C65.2973 17.1254 65.6268 17.9207 65.6268 18.75C65.6268 19.5793 65.2973 20.3746 64.711 20.9609L35.668 50L64.711 79.0391Z" fill="#2E0245"/>
</svg>
