<svg width="49" height="50" viewBox="0 0 49 50" fill="none" xmlns="http://www.w3.org/2000/svg">
<path d="M12.92 9.61955L15.2454 7.16977C15.3015 7.11047 15.3406 7.0358 15.3583 6.95425C15.376 6.87271 15.3716 6.78755 15.3457 6.70849C15.3198 6.62942 15.2733 6.5596 15.2116 6.50698C15.1498 6.45437 15.0753 6.42106 14.9965 6.41084L6.51054 5.35616C6.24039 5.32267 6.00732 5.56263 6.0391 5.85281L7.04025 14.7925C7.08263 15.1608 7.51169 15.3171 7.76066 15.0548L10.0755 12.6162L17.1577 20.0716C17.3219 20.2445 17.5921 20.2445 17.7563 20.0716L20.0022 17.7111C20.1664 17.5381 20.1664 17.2535 20.0022 17.0805L12.92 9.61955ZM31.6029 20.0716C31.7671 20.2445 32.0372 20.2445 32.2014 20.0716L39.2836 12.6162L41.5985 15.0548C41.6548 15.1138 41.7256 15.155 41.8031 15.1737C41.8805 15.1924 41.9613 15.1878 42.0363 15.1604C42.1114 15.1331 42.1777 15.0841 42.2276 15.0191C42.2776 14.9541 42.3092 14.8756 42.3189 14.7925L43.32 5.85839C43.3518 5.57379 43.124 5.32825 42.8486 5.36174L34.3626 6.41642C34.013 6.46107 33.8647 6.91308 34.1137 7.17535L36.4391 9.62513L29.3569 17.0749C29.278 17.1588 29.2338 17.2721 29.2338 17.3902C29.2338 17.5083 29.278 17.6216 29.3569 17.7055L31.6029 20.0716ZM42.3189 35.2055C42.2765 34.8372 41.8474 34.6809 41.5985 34.9432L39.2836 37.3818L32.2014 29.9265C32.1218 29.8434 32.0142 29.7968 31.9021 29.7968C31.7901 29.7968 31.6825 29.8434 31.6029 29.9265L29.3569 32.287C29.278 32.3709 29.2338 32.4842 29.2338 32.6022C29.2338 32.7203 29.278 32.8336 29.3569 32.9175L36.4391 40.3785L34.1137 42.8282C34.0577 42.8875 34.0186 42.9622 34.0009 43.0438C33.9831 43.1253 33.9875 43.2105 34.0134 43.2895C34.0394 43.3686 34.0858 43.4384 34.1476 43.491C34.2093 43.5437 34.2838 43.577 34.3626 43.5872L42.8486 44.6419C43.1187 44.6753 43.3518 44.4354 43.32 44.1452L42.3189 35.2055ZM17.7563 29.9265C17.6766 29.8434 17.5691 29.7968 17.457 29.7968C17.3449 29.7968 17.2373 29.8434 17.1577 29.9265L10.0755 37.3818L7.76066 34.9432C7.70437 34.8842 7.63349 34.843 7.55608 34.8243C7.47867 34.8057 7.39784 34.8103 7.32279 34.8376C7.24773 34.8649 7.18146 34.9139 7.13151 34.9789C7.08157 35.0439 7.04995 35.1224 7.04025 35.2055L6.0391 44.1396C6.00732 44.4242 6.23509 44.6698 6.51054 44.6363L14.9965 43.5816C15.3461 43.537 15.4944 43.0849 15.2454 42.8227L12.92 40.3785L20.0022 32.9231C20.1664 32.7501 20.1664 32.4655 20.0022 32.2925L17.7563 29.9265Z" fill="black"/>
</svg>
