<svg width="100" height="112" viewBox="0 0 100 112" fill="none" xmlns="http://www.w3.org/2000/svg">
<path d="M96.875 49.668C96.919 52.9789 96.3048 56.2655 95.0681 59.3371C93.8314 62.4086 91.9969 65.204 89.6711 67.5607C87.3452 69.9174 84.5744 71.7887 81.5194 73.0658C78.4644 74.3428 75.1861 75.0003 71.875 75C65.8281 75 60.2812 71.3477 55.957 67.7735C54.2856 66.3885 52.1839 65.629 50.0132 65.6254C47.8426 65.6219 45.7385 66.3745 44.0625 67.7539C39.4492 71.5782 33.4414 75.2774 26.9179 74.9727C20.3925 74.6674 14.2458 71.8201 9.79316 67.04C5.34055 62.26 2.9358 55.927 3.09354 49.3963C3.25128 42.8657 5.95898 36.6561 10.6372 32.0967C15.3154 27.5372 21.5924 24.9899 28.125 25H71.5039C85.2422 25 96.6953 35.9375 96.875 49.668Z" fill="var(--primary200)"/>
<path d="M71.5039 21.875H28.125C24.3197 21.875 20.5541 22.6472 17.0559 24.1448C13.5577 25.6424 10.3998 27.8343 7.7734 30.5878C5.14696 33.3413 3.10661 36.5992 1.77584 40.1642C0.445065 43.7292 -0.148438 47.5271 0.0312554 51.3281C0.691412 65.6602 12.4375 77.418 26.7695 78.0937C32.9609 78.3828 39.2695 75.7891 46.0586 70.1641C47.1707 69.2444 48.5686 68.7413 50.0117 68.7413C51.4548 68.7413 52.8528 69.2444 53.9648 70.1641C58.0938 73.5898 64.4531 78.125 71.875 78.125C75.5999 78.1253 79.2877 77.3857 82.7244 75.9492C86.1611 74.5126 89.2782 72.4077 91.8947 69.7566C94.5113 67.1055 96.5752 63.9611 97.9666 60.5059C99.358 57.0506 100.049 53.3534 100 49.6289C99.8008 34.3242 87.0156 21.875 71.5039 21.875ZM87.4453 65.3672C85.4151 67.4354 82.9917 69.0766 80.3177 70.1943C77.6437 71.3119 74.7732 71.8834 71.875 71.875C66.4531 71.875 61.3281 68.1602 57.9492 65.3633C55.7152 63.5174 52.9077 62.5077 50.0098 62.5077C47.1118 62.5077 44.3044 63.5174 42.0703 65.3633C36.5313 69.9219 31.6406 72.0664 27.0625 71.8516C21.6407 71.5567 16.5191 69.2687 12.6818 65.427C8.84445 61.5854 6.56217 56.4612 6.27344 51.0391C6.13283 48.0821 6.59384 45.1275 7.62856 42.3539C8.66327 39.5804 10.2502 37.0457 12.2931 34.9034C14.3361 32.7611 16.7926 31.0558 19.5139 29.8906C22.2353 28.7255 25.1647 28.1248 28.125 28.125H71.5039C83.6133 28.125 93.5938 37.8086 93.75 49.707C93.7963 52.6058 93.2623 55.4846 92.1796 58.174C91.0969 60.8634 89.4872 63.3091 87.4453 65.3672ZM71.875 37.5C71.875 38.3288 71.5458 39.1237 70.9597 39.7097C70.3737 40.2958 69.5788 40.625 68.75 40.625H31.25C30.4212 40.625 29.6263 40.2958 29.0403 39.7097C28.4542 39.1237 28.125 38.3288 28.125 37.5C28.125 36.6712 28.4542 35.8763 29.0403 35.2903C29.6263 34.7042 30.4212 34.375 31.25 34.375H68.75C69.5788 34.375 70.3737 34.7042 70.9597 35.2903C71.5458 35.8763 71.875 36.6712 71.875 37.5Z" fill="var(--primary400)"/>
<g filter="url(#filter0_d_60_4438)">
<path d="M30 38.75C27.775 38.75 25.5999 39.4098 23.7498 40.646C21.8998 41.8821 20.4578 43.6391 19.6064 45.6948C18.7549 47.7505 18.5321 50.0125 18.9662 52.1948C19.4003 54.3771 20.4717 56.3816 22.0451 57.955C23.6184 59.5283 25.623 60.5997 27.8052 61.0338C29.9875 61.4679 32.2495 61.2451 34.3052 60.3936C36.3609 59.5422 38.1179 58.1002 39.354 56.2502C40.5902 54.4001 41.25 52.225 41.25 50C41.25 47.0163 40.0647 44.1548 37.955 42.045C35.8452 39.9353 32.9837 38.75 30 38.75ZM30 52.8125C29.4437 52.8125 28.9 52.6476 28.4375 52.3385C27.975 52.0295 27.6145 51.5902 27.4016 51.0763C27.1887 50.5624 27.133 49.9969 27.2415 49.4513C27.3501 48.9057 27.6179 48.4046 28.0113 48.0113C28.4046 47.6179 28.9057 47.3501 29.4513 47.2415C29.9969 47.133 30.5624 47.1887 31.0763 47.4016C31.5902 47.6145 32.0295 47.9749 32.3385 48.4375C32.6476 48.9 32.8125 49.4437 32.8125 50C32.8125 50.7459 32.5162 51.4613 31.9887 51.9887C31.4613 52.5162 30.7459 52.8125 30 52.8125Z" fill="var(--primary200)"/>
<path d="M30 37.8125C27.5895 37.8125 25.2332 38.5273 23.229 39.8665C21.2248 41.2056 19.6627 43.1091 18.7402 45.336C17.8178 47.563 17.5764 50.0135 18.0467 52.3777C18.5169 54.7418 19.6777 56.9134 21.3821 58.6179C23.0866 60.3223 25.2582 61.4831 27.6223 61.9533C29.9865 62.4236 32.437 62.1822 34.664 61.2598C36.8909 60.3373 38.7944 58.7752 40.1335 56.771C41.4727 54.7668 42.1875 52.4105 42.1875 50C42.1841 46.7687 40.899 43.6708 38.6141 41.3859C36.3292 39.101 33.2313 37.8159 30 37.8125ZM30 60.3125C27.9604 60.3125 25.9666 59.7077 24.2707 58.5745C22.5748 57.4414 21.253 55.8308 20.4725 53.9464C19.692 52.0621 19.4877 49.9886 19.8857 47.9881C20.2836 45.9877 21.2657 44.1502 22.708 42.708C24.1502 41.2657 25.9877 40.2836 27.9881 39.8857C29.9886 39.4877 32.0621 39.692 33.9464 40.4725C35.8308 41.253 37.4414 42.5748 38.5745 44.2707C39.7077 45.9666 40.3125 47.9604 40.3125 50C40.3094 52.7341 39.2219 55.3553 37.2886 57.2886C35.3553 59.2219 32.7341 60.3094 30 60.3125ZM30 43.4375C28.2601 43.4394 26.592 44.1314 25.3617 45.3617C24.1314 46.592 23.4394 48.2601 23.4375 50C23.4375 50.2486 23.3387 50.4871 23.1629 50.6629C22.9871 50.8387 22.7486 50.9375 22.5 50.9375C22.2514 50.9375 22.0129 50.8387 21.8371 50.6629C21.6613 50.4871 21.5625 50.2486 21.5625 50C21.565 47.763 22.4547 45.6183 24.0365 44.0365C25.6183 42.4547 27.763 41.565 30 41.5625C30.2486 41.5625 30.4871 41.6613 30.6629 41.8371C30.8387 42.0129 30.9375 42.2514 30.9375 42.5C30.9375 42.7486 30.8387 42.9871 30.6629 43.1629C30.4871 43.3387 30.2486 43.4375 30 43.4375ZM38.4375 50C38.435 52.237 37.5453 54.3817 35.9635 55.9635C34.3817 57.5453 32.237 58.435 30 58.4375C29.7514 58.4375 29.5129 58.3387 29.3371 58.1629C29.1613 57.9871 29.0625 57.7486 29.0625 57.5C29.0625 57.2514 29.1613 57.0129 29.3371 56.8371C29.5129 56.6613 29.7514 56.5625 30 56.5625C31.7399 56.5606 33.408 55.8686 34.6383 54.6383C35.8686 53.408 36.5606 51.7399 36.5625 50C36.5625 49.7514 36.6613 49.5129 36.8371 49.3371C37.0129 49.1613 37.2514 49.0625 37.5 49.0625C37.7486 49.0625 37.9871 49.1613 38.1629 49.3371C38.3387 49.5129 38.4375 49.7514 38.4375 50ZM33.75 50C33.75 49.2583 33.5301 48.5333 33.118 47.9166C32.706 47.2999 32.1203 46.8193 31.4351 46.5355C30.7498 46.2516 29.9958 46.1774 29.2684 46.3221C28.541 46.4667 27.8728 46.8239 27.3484 47.3483C26.8239 47.8728 26.4668 48.541 26.3221 49.2684C26.1774 49.9958 26.2516 50.7498 26.5355 51.4351C26.8193 52.1203 27.2999 52.706 27.9166 53.118C28.5333 53.5301 29.2583 53.75 30 53.75C30.9946 53.75 31.9484 53.3549 32.6517 52.6516C33.3549 51.9484 33.75 50.9946 33.75 50ZM28.125 50C28.125 49.6292 28.235 49.2666 28.441 48.9583C28.647 48.65 28.9399 48.4096 29.2825 48.2677C29.6251 48.1258 30.0021 48.0887 30.3658 48.161C30.7295 48.2334 31.0636 48.412 31.3258 48.6742C31.5881 48.9364 31.7666 49.2705 31.839 49.6342C31.9113 49.9979 31.8742 50.3749 31.7323 50.7175C31.5904 51.0601 31.35 51.353 31.0417 51.559C30.7334 51.765 30.3708 51.875 30 51.875C29.5027 51.875 29.0258 51.6775 28.6742 51.3258C28.3225 50.9742 28.125 50.4973 28.125 50Z" fill="var(--primary800)"/>
</g>
<g filter="url(#filter1_d_60_4438)">
<path d="M70 38.75C67.775 38.75 65.5999 39.4098 63.7498 40.646C61.8998 41.8821 60.4578 43.6391 59.6064 45.6948C58.7549 47.7505 58.5321 50.0125 58.9662 52.1948C59.4003 54.3771 60.4717 56.3816 62.0451 57.955C63.6184 59.5283 65.623 60.5997 67.8052 61.0338C69.9875 61.4679 72.2495 61.2451 74.3052 60.3936C76.3609 59.5422 78.1179 58.1002 79.354 56.2502C80.5902 54.4001 81.25 52.225 81.25 50C81.25 47.0163 80.0647 44.1548 77.955 42.045C75.8452 39.9353 72.9837 38.75 70 38.75ZM70 52.8125C69.4437 52.8125 68.9 52.6476 68.4375 52.3385C67.975 52.0295 67.6145 51.5902 67.4016 51.0763C67.1887 50.5624 67.133 49.9969 67.2415 49.4513C67.3501 48.9057 67.6179 48.4046 68.0113 48.0113C68.4046 47.6179 68.9057 47.3501 69.4513 47.2415C69.9969 47.133 70.5624 47.1887 71.0763 47.4016C71.5902 47.6145 72.0295 47.9749 72.3385 48.4375C72.6476 48.9 72.8125 49.4437 72.8125 50C72.8125 50.7459 72.5162 51.4613 71.9887 51.9887C71.4613 52.5162 70.7459 52.8125 70 52.8125Z" fill="var(--primary200)"/>
<path d="M70 37.8125C67.5895 37.8125 65.2332 38.5273 63.229 39.8665C61.2248 41.2056 59.6627 43.1091 58.7402 45.336C57.8178 47.563 57.5764 50.0135 58.0467 52.3777C58.5169 54.7418 59.6777 56.9134 61.3821 58.6179C63.0866 60.3223 65.2582 61.4831 67.6223 61.9533C69.9865 62.4236 72.437 62.1822 74.664 61.2598C76.8909 60.3373 78.7944 58.7752 80.1335 56.771C81.4727 54.7668 82.1875 52.4105 82.1875 50C82.1841 46.7687 80.899 43.6708 78.6141 41.3859C76.3292 39.101 73.2313 37.8159 70 37.8125ZM70 60.3125C67.9604 60.3125 65.9666 59.7077 64.2707 58.5745C62.5748 57.4414 61.253 55.8308 60.4725 53.9464C59.692 52.0621 59.4877 49.9886 59.8857 47.9881C60.2836 45.9877 61.2657 44.1502 62.708 42.708C64.1502 41.2657 65.9877 40.2836 67.9881 39.8857C69.9886 39.4877 72.0621 39.692 73.9464 40.4725C75.8308 41.253 77.4414 42.5748 78.5745 44.2707C79.7077 45.9666 80.3125 47.9604 80.3125 50C80.3094 52.7341 79.2219 55.3553 77.2886 57.2886C75.3553 59.2219 72.7341 60.3094 70 60.3125ZM70 43.4375C68.2601 43.4394 66.592 44.1314 65.3617 45.3617C64.1314 46.592 63.4394 48.2601 63.4375 50C63.4375 50.2486 63.3387 50.4871 63.1629 50.6629C62.9871 50.8387 62.7486 50.9375 62.5 50.9375C62.2514 50.9375 62.0129 50.8387 61.8371 50.6629C61.6613 50.4871 61.5625 50.2486 61.5625 50C61.565 47.763 62.4547 45.6183 64.0365 44.0365C65.6183 42.4547 67.763 41.565 70 41.5625C70.2486 41.5625 70.4871 41.6613 70.6629 41.8371C70.8387 42.0129 70.9375 42.2514 70.9375 42.5C70.9375 42.7486 70.8387 42.9871 70.6629 43.1629C70.4871 43.3387 70.2486 43.4375 70 43.4375ZM78.4375 50C78.435 52.237 77.5453 54.3817 75.9635 55.9635C74.3817 57.5453 72.237 58.435 70 58.4375C69.7514 58.4375 69.5129 58.3387 69.3371 58.1629C69.1613 57.9871 69.0625 57.7486 69.0625 57.5C69.0625 57.2514 69.1613 57.0129 69.3371 56.8371C69.5129 56.6613 69.7514 56.5625 70 56.5625C71.7399 56.5606 73.408 55.8686 74.6383 54.6383C75.8686 53.408 76.5606 51.7399 76.5625 50C76.5625 49.7514 76.6613 49.5129 76.8371 49.3371C77.0129 49.1613 77.2514 49.0625 77.5 49.0625C77.7486 49.0625 77.9871 49.1613 78.1629 49.3371C78.3387 49.5129 78.4375 49.7514 78.4375 50ZM73.75 50C73.75 49.2583 73.5301 48.5333 73.118 47.9166C72.706 47.2999 72.1203 46.8193 71.4351 46.5355C70.7498 46.2516 69.9958 46.1774 69.2684 46.3221C68.541 46.4667 67.8728 46.8239 67.3484 47.3483C66.8239 47.8728 66.4668 48.541 66.3221 49.2684C66.1774 49.9958 66.2516 50.7498 66.5355 51.4351C66.8193 52.1203 67.2999 52.706 67.9166 53.118C68.5333 53.5301 69.2583 53.75 70 53.75C70.9946 53.75 71.9484 53.3549 72.6517 52.6516C73.3549 51.9484 73.75 50.9946 73.75 50ZM68.125 50C68.125 49.6292 68.235 49.2666 68.441 48.9583C68.647 48.65 68.9399 48.4096 69.2825 48.2677C69.6251 48.1258 70.0021 48.0887 70.3658 48.161C70.7295 48.2334 71.0636 48.412 71.3258 48.6742C71.5881 48.9364 71.7666 49.2705 71.839 49.6342C71.9113 49.9979 71.8742 50.3749 71.7323 50.7175C71.5904 51.0601 71.35 51.353 71.0417 51.559C70.7334 51.765 70.3708 51.875 70 51.875C69.5027 51.875 69.0258 51.6775 68.6742 51.3258C68.3225 50.9742 68.125 50.4973 68.125 50Z" fill="var(--primary800)"/>
</g>
<path d="M22.48 105.21C20.94 105.21 19.56 104.96 18.34 104.46C17.12 103.96 16.14 103.22 15.4 102.24C14.68 101.26 14.3 100.08 14.26 98.7H19.72C19.8 99.48 20.07 100.08 20.53 100.5C20.99 100.9 21.59 101.1 22.33 101.1C23.09 101.1 23.69 100.93 24.13 100.59C24.57 100.23 24.79 99.74 24.79 99.12C24.79 98.6 24.61 98.17 24.25 97.83C23.91 97.49 23.48 97.21 22.96 96.99C22.46 96.77 21.74 96.52 20.8 96.24C19.44 95.82 18.33 95.4 17.47 94.98C16.61 94.56 15.87 93.94 15.25 93.12C14.63 92.3 14.32 91.23 14.32 89.91C14.32 87.95 15.03 86.42 16.45 85.32C17.87 84.2 19.72 83.64 22 83.64C24.32 83.64 26.19 84.2 27.61 85.32C29.03 86.42 29.79 87.96 29.89 89.94H24.34C24.3 89.26 24.05 88.73 23.59 88.35C23.13 87.95 22.54 87.75 21.82 87.75C21.2 87.75 20.7 87.92 20.32 88.26C19.94 88.58 19.75 89.05 19.75 89.67C19.75 90.35 20.07 90.88 20.71 91.26C21.35 91.64 22.35 92.05 23.71 92.49C25.07 92.95 26.17 93.39 27.01 93.81C27.87 94.23 28.61 94.84 29.23 95.64C29.85 96.44 30.16 97.47 30.16 98.73C30.16 99.93 29.85 101.02 29.23 102C28.63 102.98 27.75 103.76 26.59 104.34C25.43 104.92 24.06 105.21 22.48 105.21ZM49.097 96.36C49.097 96.84 49.067 97.34 49.007 97.86H37.397C37.477 98.9 37.807 99.7 38.387 100.26C38.987 100.8 39.717 101.07 40.577 101.07C41.857 101.07 42.747 100.53 43.247 99.45H48.707C48.427 100.55 47.917 101.54 47.177 102.42C46.457 103.3 45.547 103.99 44.447 104.49C43.347 104.99 42.117 105.24 40.757 105.24C39.117 105.24 37.657 104.89 36.377 104.19C35.097 103.49 34.097 102.49 33.377 101.19C32.657 99.89 32.297 98.37 32.297 96.63C32.297 94.89 32.647 93.37 33.347 92.07C34.067 90.77 35.067 89.77 36.347 89.07C37.627 88.37 39.097 88.02 40.757 88.02C42.377 88.02 43.817 88.36 45.077 89.04C46.337 89.72 47.317 90.69 48.017 91.95C48.737 93.21 49.097 94.68 49.097 96.36ZM43.847 95.01C43.847 94.13 43.547 93.43 42.947 92.91C42.347 92.39 41.597 92.13 40.697 92.13C39.837 92.13 39.107 92.38 38.507 92.88C37.927 93.38 37.567 94.09 37.427 95.01H43.847ZM67.5834 96.36C67.5834 96.84 67.5534 97.34 67.4934 97.86H55.8834C55.9634 98.9 56.2934 99.7 56.8734 100.26C57.4734 100.8 58.2034 101.07 59.0634 101.07C60.3434 101.07 61.2334 100.53 61.7334 99.45H67.1934C66.9134 100.55 66.4034 101.54 65.6634 102.42C64.9434 103.3 64.0334 103.99 62.9334 104.49C61.8334 104.99 60.6034 105.24 59.2434 105.24C57.6034 105.24 56.1434 104.89 54.8634 104.19C53.5834 103.49 52.5834 102.49 51.8634 101.19C51.1434 99.89 50.7834 98.37 50.7834 96.63C50.7834 94.89 51.1334 93.37 51.8334 92.07C52.5534 90.77 53.5534 89.77 54.8334 89.07C56.1134 88.37 57.5834 88.02 59.2434 88.02C60.8634 88.02 62.3034 88.36 63.5634 89.04C64.8234 89.72 65.8034 90.69 66.5034 91.95C67.2234 93.21 67.5834 94.68 67.5834 96.36ZM62.3334 95.01C62.3334 94.13 62.0334 93.43 61.4334 92.91C60.8334 92.39 60.0834 92.13 59.1834 92.13C58.3234 92.13 57.5934 92.38 56.9934 92.88C56.4134 93.38 56.0534 94.09 55.9134 95.01H62.3334ZM80.5197 105L75.4197 97.98V105H70.2897V82.8H75.4197V95.07L80.4897 88.26H86.8197L79.8597 96.66L86.8797 105H80.5197Z" fill="var(--primary400)"/>
<defs>
<filter id="filter0_d_60_4438" x="5" y="25" width="50" height="50" filterUnits="userSpaceOnUse" color-interpolation-filters="sRGB">
<feFlood flood-opacity="0" result="BackgroundImageFix"/>
<feColorMatrix in="SourceAlpha" type="matrix" values="0 0 0 0 0 0 0 0 0 0 0 0 0 0 0 0 0 0 127 0" result="hardAlpha"/>
<feOffset/>
<feGaussianBlur stdDeviation="5"/>
<feComposite in2="hardAlpha" operator="out"/>
<feColorMatrix type="matrix" values="0 0 0 0 0.815686 0 0 0 0 0.619608 0 0 0 0 0.917647 0 0 0 0.5 0"/>
<feBlend mode="normal" in2="BackgroundImageFix" result="effect1_dropShadow_60_4438"/>
<feBlend mode="normal" in="SourceGraphic" in2="effect1_dropShadow_60_4438" result="shape"/>
</filter>
<filter id="filter1_d_60_4438" x="45" y="25" width="50" height="50" filterUnits="userSpaceOnUse" color-interpolation-filters="sRGB">
<feFlood flood-opacity="0" result="BackgroundImageFix"/>
<feColorMatrix in="SourceAlpha" type="matrix" values="0 0 0 0 0 0 0 0 0 0 0 0 0 0 0 0 0 0 127 0" result="hardAlpha"/>
<feOffset/>
<feGaussianBlur stdDeviation="5"/>
<feComposite in2="hardAlpha" operator="out"/>
<feColorMatrix type="matrix" values="0 0 0 0 0.815686 0 0 0 0 0.619608 0 0 0 0 0.917647 0 0 0 0.5 0"/>
<feBlend mode="normal" in2="BackgroundImageFix" result="effect1_dropShadow_60_4438"/>
<feBlend mode="normal" in="SourceGraphic" in2="effect1_dropShadow_60_4438" result="shape"/>
</filter>
</defs>
</svg>
