<svg width="8" height="8" viewBox="0 0 8 8" fill="none" xmlns="http://www.w3.org/2000/svg">
<path opacity="0.2" d="M7.5 5L5.5 6.25V3.75L7.5 5Z" fill="#4B0372"/>
<path d="M1 2C1 1.9337 1.02634 1.87011 1.07322 1.82322C1.12011 1.77634 1.1837 1.75 1.25 1.75H6.75C6.8163 1.75 6.87989 1.77634 6.92678 1.82322C6.97366 1.87011 7 1.9337 7 2C7 2.0663 6.97366 2.12989 6.92678 2.17678C6.87989 2.22366 6.8163 2.25 6.75 2.25H1.25C1.1837 2.25 1.12011 2.22366 1.07322 2.17678C1.02634 2.12989 1 2.0663 1 2ZM4.25 3.75H1.25C1.1837 3.75 1.12011 3.77634 1.07322 3.82322C1.02634 3.87011 1 3.9337 1 4C1 4.0663 1.02634 4.12989 1.07322 4.17678C1.12011 4.22366 1.1837 4.25 1.25 4.25H4.25C4.3163 4.25 4.37989 4.22366 4.42678 4.17678C4.47366 4.12989 4.5 4.0663 4.5 4C4.5 3.9337 4.47366 3.87011 4.42678 3.82322C4.37989 3.77634 4.3163 3.75 4.25 3.75ZM4.25 5.75H1.25C1.1837 5.75 1.12011 5.77634 1.07322 5.82322C1.02634 5.87011 1 5.9337 1 6C1 6.0663 1.02634 6.12989 1.07322 6.17678C1.12011 6.22366 1.1837 6.25 1.25 6.25H4.25C4.3163 6.25 4.37989 6.22366 4.42678 6.17678C4.47366 6.12989 4.5 6.0663 4.5 6C4.5 5.9337 4.47366 5.87011 4.42678 5.82322C4.37989 5.77634 4.3163 5.75 4.25 5.75ZM7.75 5C7.74998 5.04238 7.73918 5.08406 7.71863 5.12112C7.69808 5.15818 7.66844 5.18941 7.6325 5.21187L5.6325 6.46187C5.59467 6.48552 5.55119 6.49861 5.50659 6.49979C5.46199 6.50097 5.41789 6.49018 5.37886 6.46857C5.33983 6.44695 5.3073 6.41528 5.28464 6.37685C5.26198 6.33841 5.25002 6.29462 5.25 6.25V3.75C5.25002 3.70538 5.26198 3.66159 5.28464 3.62315C5.3073 3.58472 5.33983 3.55305 5.37886 3.53143C5.41789 3.50982 5.46199 3.49903 5.50659 3.50021C5.55119 3.50139 5.59467 3.51448 5.6325 3.53813L7.6325 4.78813C7.66844 4.81059 7.69808 4.84182 7.71863 4.87888C7.73918 4.91594 7.74998 4.95762 7.75 5ZM7.02844 5L5.75 4.20094V5.79906L7.02844 5Z" fill="#4B0372"/>
</svg>
