<svg width="36" height="37" viewBox="0 0 36 37" fill="none" xmlns="http://www.w3.org/2000/svg">
<path d="M16.875 6.125V2.75C16.875 2.45163 16.9935 2.16548 17.2045 1.9545C17.4155 1.74353 17.7016 1.625 18 1.625C18.2984 1.625 18.5845 1.74353 18.7955 1.9545C19.0065 2.16548 19.125 2.45163 19.125 2.75V6.125C19.125 6.42337 19.0065 6.70952 18.7955 6.9205C18.5845 7.13147 18.2984 7.25 18 7.25C17.7016 7.25 17.4155 7.13147 17.2045 6.9205C16.9935 6.70952 16.875 6.42337 16.875 6.125ZM18 9.5C16.22 9.5 14.4799 10.0278 12.9999 11.0168C11.5198 12.0057 10.3663 13.4113 9.68508 15.0558C9.0039 16.7004 8.82567 18.51 9.17293 20.2558C9.5202 22.0016 10.3774 23.6053 11.636 24.864C12.8947 26.1226 14.4984 26.9798 16.2442 27.3271C17.99 27.6743 19.7996 27.4961 21.4442 26.8149C23.0887 26.1337 24.4943 24.9802 25.4832 23.5001C26.4722 22.0201 27 20.28 27 18.5C26.9974 16.1139 26.0483 13.8262 24.3611 12.1389C22.6738 10.4517 20.3861 9.50261 18 9.5ZM8.20406 10.2959C8.41516 10.507 8.70147 10.6256 9 10.6256C9.29853 10.6256 9.58484 10.507 9.79594 10.2959C10.007 10.0848 10.1256 9.79853 10.1256 9.5C10.1256 9.20147 10.007 8.91516 9.79594 8.70406L7.54594 6.45406C7.33484 6.24297 7.04853 6.12437 6.75 6.12437C6.45147 6.12437 6.16516 6.24297 5.95406 6.45406C5.74297 6.66516 5.62437 6.95147 5.62437 7.25C5.62437 7.54853 5.74297 7.83484 5.95406 8.04594L8.20406 10.2959ZM8.20406 26.7041L5.95406 28.9541C5.74297 29.1652 5.62437 29.4515 5.62437 29.75C5.62437 30.0485 5.74297 30.3348 5.95406 30.5459C6.16516 30.757 6.45147 30.8756 6.75 30.8756C7.04853 30.8756 7.33484 30.757 7.54594 30.5459L9.79594 28.2959C9.90046 28.1914 9.98337 28.0673 10.0399 27.9308C10.0965 27.7942 10.1256 27.6478 10.1256 27.5C10.1256 27.3522 10.0965 27.2058 10.0399 27.0692C9.98337 26.9327 9.90046 26.8086 9.79594 26.7041C9.69141 26.5995 9.56733 26.5166 9.43076 26.4601C9.29419 26.4035 9.14782 26.3744 9 26.3744C8.85218 26.3744 8.70581 26.4035 8.56924 26.4601C8.43267 26.5166 8.30859 26.5995 8.20406 26.7041ZM27 10.625C27.1478 10.6251 27.2941 10.5961 27.4307 10.5397C27.5673 10.4832 27.6914 10.4004 27.7959 10.2959L30.0459 8.04594C30.257 7.83484 30.3756 7.54853 30.3756 7.25C30.3756 6.95147 30.257 6.66516 30.0459 6.45406C29.8348 6.24297 29.5485 6.12437 29.25 6.12437C28.9515 6.12437 28.6652 6.24297 28.4541 6.45406L26.2041 8.70406C26.0465 8.8614 25.9393 9.06193 25.8958 9.28028C25.8523 9.49863 25.8746 9.72496 25.9598 9.93064C26.045 10.1363 26.1894 10.3121 26.3745 10.4357C26.5597 10.5593 26.7774 10.6252 27 10.625ZM27.7959 26.7041C27.5848 26.493 27.2985 26.3744 27 26.3744C26.7015 26.3744 26.4152 26.493 26.2041 26.7041C25.993 26.9152 25.8744 27.2015 25.8744 27.5C25.8744 27.7985 25.993 28.0848 26.2041 28.2959L28.4541 30.5459C28.5586 30.6505 28.6827 30.7334 28.8192 30.7899C28.9558 30.8465 29.1022 30.8756 29.25 30.8756C29.3978 30.8756 29.5442 30.8465 29.6808 30.7899C29.8173 30.7334 29.9414 30.6505 30.0459 30.5459C30.1505 30.4414 30.2334 30.3173 30.2899 30.1808C30.3465 30.0442 30.3756 29.8978 30.3756 29.75C30.3756 29.6022 30.3465 29.4558 30.2899 29.3192C30.2334 29.1827 30.1505 29.0586 30.0459 28.9541L27.7959 26.7041ZM6.75 18.5C6.75 18.2016 6.63147 17.9155 6.4205 17.7045C6.20952 17.4935 5.92337 17.375 5.625 17.375H2.25C1.95163 17.375 1.66548 17.4935 1.4545 17.7045C1.24353 17.9155 1.125 18.2016 1.125 18.5C1.125 18.7984 1.24353 19.0845 1.4545 19.2955C1.66548 19.5065 1.95163 19.625 2.25 19.625H5.625C5.92337 19.625 6.20952 19.5065 6.4205 19.2955C6.63147 19.0845 6.75 18.7984 6.75 18.5ZM18 29.75C17.7016 29.75 17.4155 29.8685 17.2045 30.0795C16.9935 30.2905 16.875 30.5766 16.875 30.875V34.25C16.875 34.5484 16.9935 34.8345 17.2045 35.0455C17.4155 35.2565 17.7016 35.375 18 35.375C18.2984 35.375 18.5845 35.2565 18.7955 35.0455C19.0065 34.8345 19.125 34.5484 19.125 34.25V30.875C19.125 30.5766 19.0065 30.2905 18.7955 30.0795C18.5845 29.8685 18.2984 29.75 18 29.75ZM33.75 17.375H30.375C30.0766 17.375 29.7905 17.4935 29.5795 17.7045C29.3685 17.9155 29.25 18.2016 29.25 18.5C29.25 18.7984 29.3685 19.0845 29.5795 19.2955C29.7905 19.5065 30.0766 19.625 30.375 19.625H33.75C34.0484 19.625 34.3345 19.5065 34.5455 19.2955C34.7565 19.0845 34.875 18.7984 34.875 18.5C34.875 18.2016 34.7565 17.9155 34.5455 17.7045C34.3345 17.4935 34.0484 17.375 33.75 17.375Z" fill="#F2F2F2"/>
</svg>
