<svg width="16" height="16" viewBox="0 0 16 16" fill="none" xmlns="http://www.w3.org/2000/svg">
<path d="M12.8538 12.1463C12.9002 12.1927 12.9371 12.2479 12.9622 12.3086C12.9874 12.3692 13.0003 12.4343 13.0003 12.5C13.0003 12.5657 12.9874 12.6308 12.9622 12.6914C12.9371 12.7521 12.9002 12.8073 12.8538 12.8538C12.8073 12.9002 12.7522 12.9371 12.6915 12.9622C12.6308 12.9873 12.5657 13.0003 12.5 13.0003C12.4343 13.0003 12.3693 12.9873 12.3086 12.9622C12.2479 12.9371 12.1927 12.9002 12.1463 12.8538L8.00003 8.70687L3.85378 12.8538C3.75996 12.9476 3.63272 13.0003 3.50003 13.0003C3.36735 13.0003 3.2401 12.9476 3.14628 12.8538C3.05246 12.7599 2.99976 12.6327 2.99976 12.5C2.99976 12.3673 3.05246 12.2401 3.14628 12.1463L7.29316 8L3.14628 3.85375C3.05246 3.75993 2.99976 3.63268 2.99976 3.5C2.99976 3.36732 3.05246 3.24007 3.14628 3.14625C3.2401 3.05243 3.36735 2.99972 3.50003 2.99972C3.63272 2.99972 3.75996 3.05243 3.85378 3.14625L8.00003 7.29313L12.1463 3.14625C12.2401 3.05243 12.3674 2.99972 12.5 2.99972C12.6327 2.99972 12.76 3.05243 12.8538 3.14625C12.9476 3.24007 13.0003 3.36732 13.0003 3.5C13.0003 3.63268 12.9476 3.75993 12.8538 3.85375L8.70691 8L12.8538 12.1463Z" fill="#2E2E2E"/>
</svg>
