<svg width="36" height="37" viewBox="0 0 36 37" fill="none" xmlns="http://www.w3.org/2000/svg">
<g clip-path="url(#clip0_47_3264)">
<path d="M18.4968 0.507201C18.2587 0.500416 18.024 0.564614 17.8226 0.691625C17.6211 0.818636 17.462 1.00271 17.3655 1.22043C17.269 1.43815 17.2395 1.67966 17.2807 1.91421C17.3218 2.14877 17.4319 2.36578 17.5968 2.5376C19.7274 4.75893 21.0902 7.60451 21.4853 10.657C21.8804 13.7095 21.287 16.8083 19.7922 19.4989C18.2974 22.1895 15.9798 24.3303 13.1793 25.6074C10.3788 26.8845 7.2428 27.2307 4.23117 26.5952C3.99851 26.5469 3.75672 26.5687 3.53647 26.6579C3.31622 26.7471 3.12743 26.8997 2.99401 27.0964C2.8606 27.2931 2.78857 27.5249 2.78707 27.7625C2.78557 28.0002 2.85466 28.2329 2.98557 28.4312C4.69156 31.0101 7.03314 33.1061 9.78459 34.5171C12.536 35.9281 15.6046 36.6064 18.6944 36.4868C21.7842 36.3672 24.7911 35.4537 27.4253 33.8342C30.0594 32.2148 32.232 29.9441 33.7335 27.2409C35.235 24.5378 36.0148 21.4935 35.9979 18.4014C35.9809 15.3093 35.1676 12.2738 33.6365 9.58731C32.1054 6.90087 29.908 4.65415 27.2563 3.06374C24.6045 1.47333 21.5877 0.59286 18.4968 0.507201Z" fill="#2E2E2E"/>
</g>
<defs>
<clipPath id="clip0_47_3264">
<rect width="36" height="36" fill="white" transform="translate(0 0.5)"/>
</clipPath>
</defs>
</svg>
