<svg width="100" height="100" viewBox="0 0 100 100" fill="none" xmlns="http://www.w3.org/2000/svg">
<path d="M70.9609 52.2109L39.7109 83.4609C39.4206 83.7513 39.0759 83.9816 38.6965 84.1387C38.3172 84.2959 37.9106 84.3767 37.5 84.3767C37.0894 84.3767 36.6828 84.2959 36.3034 84.1387C35.9241 83.9816 35.5794 83.7513 35.2891 83.4609C34.9987 83.1706 34.7684 82.8259 34.6113 82.4466C34.4541 82.0672 34.3733 81.6606 34.3733 81.25C34.3733 80.8394 34.4541 80.4328 34.6113 80.0535C34.7684 79.6741 34.9987 79.3294 35.2891 79.0391L64.332 50L35.2891 20.9609C34.7027 20.3746 34.3733 19.5793 34.3733 18.75C34.3733 17.9207 34.7027 17.1254 35.2891 16.5391C35.8754 15.9527 36.6707 15.6233 37.5 15.6233C38.3293 15.6233 39.1246 15.9527 39.7109 16.5391L70.9609 47.7891C71.2515 48.0793 71.482 48.4239 71.6392 48.8033C71.7965 49.1827 71.8775 49.5893 71.8775 50C71.8775 50.4107 71.7965 50.8173 71.6392 51.1967C71.482 51.5761 71.2515 51.9207 70.9609 52.2109Z" fill="#2E0245"/>
</svg>
