<svg width="16" height="16" viewBox="0 0 16 16" fill="none" xmlns="http://www.w3.org/2000/svg">
<path d="M12.8538 5.35375C12.8073 5.40024 12.7522 5.43711 12.6915 5.46228C12.6308 5.48744 12.5657 5.50039 12.5 5.50039C12.4343 5.50039 12.3692 5.48744 12.3085 5.46228C12.2478 5.43711 12.1927 5.40024 12.1462 5.35375L10 3.20687V8C9.99818 9.72334 9.31278 11.3756 8.09418 12.5942C6.87559 13.8128 5.22335 14.4982 3.5 14.5C3.36739 14.5 3.24021 14.4473 3.14645 14.3535C3.05268 14.2598 3 14.1326 3 14C3 13.8674 3.05268 13.7402 3.14645 13.6464C3.24021 13.5527 3.36739 13.5 3.5 13.5C4.95818 13.4983 6.35617 12.9183 7.38726 11.8873C8.41835 10.8562 8.99835 9.45818 9 8V3.20687L6.85375 5.35375C6.75993 5.44757 6.63268 5.50027 6.5 5.50027C6.36732 5.50027 6.24007 5.44757 6.14625 5.35375C6.05243 5.25993 5.99972 5.13268 5.99972 5C5.99972 4.86731 6.05243 4.74007 6.14625 4.64625L9.14625 1.64625C9.19269 1.59976 9.24783 1.56288 9.30853 1.53772C9.36923 1.51255 9.43429 1.4996 9.5 1.4996C9.56571 1.4996 9.63077 1.51255 9.69147 1.53772C9.75217 1.56288 9.80731 1.59976 9.85375 1.64625L12.8538 4.64625C12.9002 4.69268 12.9371 4.74783 12.9623 4.80853C12.9874 4.86923 13.0004 4.93429 13.0004 5C13.0004 5.0657 12.9874 5.13077 12.9623 5.19147C12.9371 5.25217 12.9002 5.30731 12.8538 5.35375Z" fill="#2E2E2E"/>
</svg>
