<svg width="14" height="15" viewBox="0 0 14 15" fill="none" xmlns="http://www.w3.org/2000/svg">
<path d="M12.5595 12.4405L9.82133 9.70282C10.615 8.75 11.0107 7.52789 10.9263 6.29072C10.8418 5.05355 10.2836 3.89656 9.36783 3.06046C8.45205 2.22435 7.24918 1.77349 6.00945 1.80166C4.76972 1.82984 3.58858 2.33488 2.71173 3.21173C1.83488 4.08858 1.32984 5.26972 1.30166 6.50945C1.27349 7.74918 1.72435 8.95205 2.56046 9.86783C3.39656 10.7836 4.55355 11.3418 5.79072 11.4263C7.02789 11.5107 8.25 11.115 9.20282 10.3213L11.9405 13.0595C11.9811 13.1002 12.0294 13.1324 12.0825 13.1544C12.1356 13.1764 12.1925 13.1877 12.25 13.1877C12.3075 13.1877 12.3644 13.1764 12.4175 13.1544C12.4706 13.1324 12.5189 13.1002 12.5595 13.0595C12.6002 13.0189 12.6324 12.9706 12.6544 12.9175C12.6764 12.8644 12.6877 12.8075 12.6877 12.75C12.6877 12.6925 12.6764 12.6356 12.6544 12.5825C12.6324 12.5294 12.6002 12.4811 12.5595 12.4405ZM2.1875 6.625C2.1875 5.84624 2.41843 5.08496 2.85109 4.43744C3.28375 3.78993 3.8987 3.28525 4.61819 2.98723C5.33767 2.68921 6.12937 2.61123 6.89317 2.76316C7.65697 2.91509 8.35857 3.2901 8.90924 3.84077C9.4599 4.39144 9.83492 5.09303 9.98685 5.85683C10.1388 6.62064 10.0608 7.41233 9.76278 8.13182C9.46476 8.8513 8.96008 9.46626 8.31256 9.89891C7.66504 10.3316 6.90377 10.5625 6.125 10.5625C5.08107 10.5613 4.08022 10.1461 3.34205 9.40796C2.60388 8.66978 2.18866 7.66894 2.1875 6.625Z" fill="#4B0372"/>
</svg>
