<svg width="30" height="30" viewBox="0 0 30 30" fill="none" xmlns="http://www.w3.org/2000/svg">
<path d="M11.5184 12.6573H27.5898C27.7371 12.6573 27.8577 12.5368 27.8577 12.3894V10.5144C27.8577 10.3671 27.7371 10.2466 27.5898 10.2466H11.5184C11.3711 10.2466 11.2505 10.3671 11.2505 10.5144V12.3894C11.2505 12.5368 11.3711 12.6573 11.5184 12.6573ZM11.2505 19.4877C11.2505 19.635 11.3711 19.7555 11.5184 19.7555H27.5898C27.7371 19.7555 27.8577 19.635 27.8577 19.4877V17.6127C27.8577 17.4653 27.7371 17.3448 27.5898 17.3448H11.5184C11.3711 17.3448 11.2505 17.4653 11.2505 17.6127V19.4877ZM28.1255 3.21533H1.87552C1.7282 3.21533 1.60767 3.33587 1.60767 3.48319V5.35819C1.60767 5.50551 1.7282 5.62605 1.87552 5.62605H28.1255C28.2728 5.62605 28.3934 5.50551 28.3934 5.35819V3.48319C28.3934 3.33587 28.2728 3.21533 28.1255 3.21533ZM28.1255 24.376H1.87552C1.7282 24.376 1.60767 24.4966 1.60767 24.6439V26.5189C1.60767 26.6662 1.7282 26.7868 1.87552 26.7868H28.1255C28.2728 26.7868 28.3934 26.6662 28.3934 26.5189V24.6439C28.3934 24.4966 28.2728 24.376 28.1255 24.376ZM2.62552 19.3571L7.85878 15.2354C7.89402 15.2077 7.9225 15.1724 7.94209 15.1321C7.96168 15.0918 7.97186 15.0475 7.97186 15.0027C7.97186 14.9579 7.96168 14.9137 7.94209 14.8734C7.9225 14.8331 7.89402 14.7977 7.85878 14.77L2.62552 10.645C2.43133 10.491 2.14338 10.6283 2.14338 10.876V19.1227C2.14336 19.1786 2.15908 19.2334 2.18874 19.2808C2.2184 19.3282 2.2608 19.3664 2.31109 19.3908C2.36139 19.4152 2.41755 19.4251 2.47315 19.4191C2.52875 19.4131 2.58156 19.3916 2.62552 19.3571Z" fill="black" fill-opacity="0.85"/>
</svg>
