<svg width="8" height="8" viewBox="0 0 8 8" fill="none" xmlns="http://www.w3.org/2000/svg">
<path d="M1 2C1 1.9337 1.02634 1.87011 1.07322 1.82322C1.12011 1.77634 1.1837 1.75 1.25 1.75H6.75C6.8163 1.75 6.87989 1.77634 6.92678 1.82322C6.97366 1.87011 7 1.9337 7 2C7 2.0663 6.97366 2.12989 6.92678 2.17678C6.87989 2.22366 6.8163 2.25 6.75 2.25H1.25C1.1837 2.25 1.12011 2.22366 1.07322 2.17678C1.02634 2.12989 1 2.0663 1 2ZM1.25 4.25H3.25C3.3163 4.25 3.37989 4.22366 3.42678 4.17678C3.47366 4.12989 3.5 4.0663 3.5 4C3.5 3.9337 3.47366 3.87011 3.42678 3.82322C3.37989 3.77634 3.3163 3.75 3.25 3.75H1.25C1.1837 3.75 1.12011 3.77634 1.07322 3.82322C1.02634 3.87011 1 3.9337 1 4C1 4.0663 1.02634 4.12989 1.07322 4.17678C1.12011 4.22366 1.1837 4.25 1.25 4.25ZM3.75 5.75H1.25C1.1837 5.75 1.12011 5.77634 1.07322 5.82322C1.02634 5.87011 1 5.9337 1 6C1 6.0663 1.02634 6.12989 1.07322 6.17678C1.12011 6.22366 1.1837 6.25 1.25 6.25H3.75C3.8163 6.25 3.87989 6.22366 3.92678 6.17678C3.97366 6.12989 4 6.0663 4 6C4 5.9337 3.97366 5.87011 3.92678 5.82322C3.87989 5.77634 3.8163 5.75 3.75 5.75ZM7.75 4.5C7.75 5.64125 6.17875 6.44 6.11188 6.47375C6.07714 6.49113 6.03884 6.50018 6 6.50018C5.96116 6.50018 5.92286 6.49113 5.88812 6.47375C5.82125 6.44 4.25 5.64125 4.25 4.5C4.25016 4.29695 4.31214 4.09876 4.42768 3.93178C4.54322 3.76481 4.70686 3.63697 4.89683 3.56525C5.08679 3.49354 5.29409 3.48136 5.49115 3.53032C5.68821 3.57929 5.86569 3.68709 6 3.83938C6.13431 3.68709 6.31179 3.57929 6.50885 3.53032C6.70591 3.48136 6.91321 3.49354 7.10317 3.56525C7.29314 3.63697 7.45678 3.76481 7.57232 3.93178C7.68786 4.09876 7.74984 4.29695 7.75 4.5ZM7.25 4.5C7.25 4.36739 7.19732 4.24021 7.10355 4.14645C7.00979 4.05268 6.88261 4 6.75 4C6.61739 4 6.49021 4.05268 6.39645 4.14645C6.30268 4.24021 6.25 4.36739 6.25 4.5C6.25 4.5663 6.22366 4.62989 6.17678 4.67678C6.12989 4.72366 6.0663 4.75 6 4.75C5.9337 4.75 5.87011 4.72366 5.82322 4.67678C5.77634 4.62989 5.75 4.5663 5.75 4.5C5.75 4.36739 5.69732 4.24021 5.60355 4.14645C5.50979 4.05268 5.38261 4 5.25 4C5.11739 4 4.99021 4.05268 4.89645 4.14645C4.80268 4.24021 4.75 4.36739 4.75 4.5C4.75 5.13063 5.56906 5.72312 6 5.96656C6.43094 5.72344 7.25 5.13094 7.25 4.5Z" fill="#4B0372"/>
</svg>
