<svg width="12" height="13" viewBox="0 0 12 13" fill="none" xmlns="http://www.w3.org/2000/svg">
<path d="M10.7814 6.17568L5.72153 1.78417C5.68269 1.75068 5.63314 1.73193 5.58091 1.73193H4.39564C4.29653 1.73193 4.251 1.85515 4.326 1.91943L9.01618 5.99086H1.17868C1.11975 5.99086 1.07153 6.03908 1.07153 6.09801V6.90158C1.07153 6.96051 1.11975 7.00872 1.17868 7.00872H9.01484L4.32466 11.0801C4.24966 11.1458 4.29519 11.2676 4.3943 11.2676H5.61975C5.64519 11.2676 5.67064 11.2583 5.68939 11.2409L10.7814 6.8239C10.8277 6.78358 10.8649 6.73378 10.8904 6.67787C10.9158 6.62196 10.929 6.56123 10.929 6.49979C10.929 6.43835 10.9158 6.37762 10.8904 6.32171C10.8649 6.2658 10.8277 6.216 10.7814 6.17568Z" fill="#6C6C6C"/>
</svg>
