<svg width="31" height="30" viewBox="0 0 31 30" fill="none" xmlns="http://www.w3.org/2000/svg">
<path d="M23.9106 14.6279L15.4907 8.0127C15.1772 7.7666 14.7173 7.98926 14.7173 8.38477V21.6152C14.7173 22.0107 15.1772 22.2334 15.4907 21.9873L23.9106 15.3721C23.9671 15.3278 24.0127 15.2713 24.044 15.2069C24.0754 15.1424 24.0917 15.0717 24.0917 15C24.0917 14.9283 24.0754 14.8576 24.044 14.7931C24.0127 14.7287 23.9671 14.6722 23.9106 14.6279ZM14.5356 14.6279L6.11572 8.0127C5.80225 7.7666 5.34229 7.98926 5.34229 8.38477V21.6123C5.34229 22.0078 5.80225 22.2305 6.11572 21.9844L14.5356 15.3691C14.6558 15.2754 14.7173 15.1348 14.7173 14.9971C14.7173 14.8623 14.6558 14.7217 14.5356 14.6279ZM25.7798 7.26562H24.2798C24.1772 7.26562 24.0923 7.34473 24.0923 7.44141V22.5586C24.0923 22.6553 24.1772 22.7344 24.2798 22.7344H25.7798C25.8823 22.7344 25.9673 22.6553 25.9673 22.5586V7.44141C25.9673 7.34473 25.8823 7.26562 25.7798 7.26562Z" fill="black"/>
</svg>
