<svg width="51" height="50" viewBox="0 0 51 50" fill="none" xmlns="http://www.w3.org/2000/svg">
<path d="M25.6548 3.125C13.5747 3.125 3.77979 12.9199 3.77979 25C3.77979 37.0801 13.5747 46.875 25.6548 46.875C37.7349 46.875 47.5298 37.0801 47.5298 25C47.5298 12.9199 37.7349 3.125 25.6548 3.125ZM32.6909 25.3369L22.0269 33.0957C21.9684 33.1377 21.8995 33.1628 21.8277 33.1682C21.7559 33.1736 21.684 33.1591 21.6199 33.1263C21.5558 33.0935 21.502 33.0437 21.4644 32.9823C21.4268 32.9209 21.4069 32.8503 21.4067 32.7783V17.2705C21.4065 17.1984 21.4262 17.1276 21.4638 17.066C21.5013 17.0044 21.5552 16.9544 21.6194 16.9215C21.6836 16.8886 21.7557 16.8742 21.8276 16.8798C21.8995 16.8854 21.9685 16.9107 22.0269 16.9531L32.6909 24.707C32.7413 24.7427 32.7824 24.7899 32.8108 24.8447C32.8391 24.8995 32.8539 24.9603 32.8539 25.022C32.8539 25.0837 32.8391 25.1445 32.8108 25.1993C32.7824 25.2541 32.7413 25.3013 32.6909 25.3369Z" fill="black"/>
</svg>
