<svg width="40" height="40" viewBox="0 0 40 40" fill="none" xmlns="http://www.w3.org/2000/svg">
<path opacity="0.2" d="M35.6609 21.0452L13.1484 34.814C12.9606 34.928 12.7459 34.9905 12.5262 34.9952C12.3065 34.9998 12.0894 34.9465 11.8969 34.8405C11.7043 34.7344 11.5432 34.5795 11.4296 34.3914C11.316 34.2032 11.2541 33.9884 11.25 33.7687V6.23118C11.2541 6.01144 11.316 5.79665 11.4296 5.60848C11.5432 5.42032 11.7043 5.26542 11.8969 5.15941C12.0894 5.0534 12.3065 5.00003 12.5262 5.00467C12.7459 5.00932 12.9606 5.07182 13.1484 5.18587L35.6609 18.9546C35.8408 19.0635 35.9895 19.2169 36.0927 19.4C36.1959 19.5831 36.2501 19.7897 36.2501 19.9999C36.2501 20.2101 36.1959 20.4168 36.0927 20.5999C35.9895 20.783 35.8408 20.9364 35.6609 21.0452Z" fill="#F2F2F2"/>
<path d="M36.3125 17.8891L13.8 4.11724C13.4204 3.88482 12.9857 3.75794 12.5407 3.7497C12.0958 3.74146 11.6566 3.85215 11.2688 4.07036C10.8845 4.28518 10.5645 4.59845 10.3415 4.97797C10.1185 5.35749 10.0006 5.78956 10 6.22973V33.7704C10.0029 34.4306 10.2679 35.0628 10.7367 35.5277C11.2055 35.9927 11.8397 36.2525 12.5 36.25C12.9609 36.2498 13.4128 36.1228 13.8063 35.8829L36.3125 22.111C36.6743 21.8905 36.9733 21.5806 37.1807 21.2112C37.3882 20.8418 37.4971 20.4253 37.4971 20.0016C37.4971 19.5779 37.3882 19.1614 37.1807 18.792C36.9733 18.4226 36.6743 18.1127 36.3125 17.8922V17.8891ZM12.5 33.7407V6.25005L34.9734 20L12.5 33.7407Z" fill="#F2F2F2"/>
</svg>
