<svg width="31" height="30" viewBox="0 0 31 30" fill="none" xmlns="http://www.w3.org/2000/svg">
<path d="M16.1313 8.24707L7.71143 14.8623C7.65502 14.9065 7.60941 14.963 7.57805 15.0275C7.54668 15.0919 7.53038 15.1627 7.53038 15.2344C7.53038 15.3061 7.54668 15.3768 7.57805 15.4413C7.60941 15.5057 7.65502 15.5622 7.71143 15.6064L16.1313 22.2217C16.4448 22.4678 16.9048 22.2451 16.9048 21.8496V8.61914C16.9048 8.22363 16.4448 8.00098 16.1313 8.24707ZM25.5063 8.24707L17.0864 14.8623C17.03 14.9065 16.9844 14.963 16.953 15.0275C16.9217 15.0919 16.9054 15.1627 16.9054 15.2344C16.9054 15.3061 16.9217 15.3768 16.953 15.4413C16.9844 15.5057 17.03 15.5622 17.0864 15.6064L25.5063 22.2217C25.8198 22.4678 26.2798 22.2451 26.2798 21.8496V8.61914C26.2798 8.22363 25.8198 8.00098 25.5063 8.24707ZM7.34229 7.5H5.84228C5.73975 7.5 5.65479 7.5791 5.65479 7.67578V22.793C5.65479 22.8896 5.73975 22.9688 5.84228 22.9688H7.34229C7.44482 22.9688 7.52979 22.8896 7.52979 22.793V7.67578C7.52979 7.5791 7.44482 7.5 7.34229 7.5Z" fill="black"/>
</svg>
